<svg xmlns="http://www.w3.org/2000/svg" width="900" height="900" viewBox="0 0 900 900">
<rect width="100%" height="100%" fill="#f7f5ef"/>
<text x="24" y="28" font-family="Arial" font-size="16" font-weight="700" fill="#222">Agent Road Network - Raw Grid</text>
<line x1="436.60" y1="450.00" x2="450.00" y2="450.00" stroke="#665847" stroke-width="3" stroke-linecap="round"/>
<line x1="450.00" y1="450.00" x2="463.40" y2="450.00" stroke="#665847" stroke-width="3" stroke-linecap="round"/>
<line x1="450.00" y1="463.40" x2="450.00" y2="450.00" stroke="#665847" stroke-width="3" stroke-linecap="round"/>
<line x1="450.00" y1="450.00" x2="450.00" y2="436.60" stroke="#665847" stroke-width="3" stroke-linecap="round"/>
<line x1="423.20" y1="450.00" x2="436.60" y2="450.00" stroke="#665847" stroke-width="3" stroke-linecap="round"/>
<line x1="463.40" y1="450.00" x2="476.80" y2="450.00" stroke="#665847" stroke-width="3" stroke-linecap="round"/>
<line x1="450.00" y1="476.80" x2="450.00" y2="463.40" stroke="#665847" stroke-width="3" stroke-linecap="round"/>
<line x1="450.00" y1="436.60" x2="450.00" y2="423.20" stroke="#665847" stroke-width="3" stroke-linecap="round"/>
<line x1="409.80" y1="450.00" x2="423.20" y2="450.00" stroke="#665847" stroke-width="3" stroke-linecap="round"/>
<line x1="476.80" y1="450.00" x2="490.20" y2="450.00" stroke="#665847" stroke-width="3" stroke-linecap="round"/>
<line x1="450.00" y1="490.20" x2="450.00" y2="476.80" stroke="#665847" stroke-width="3" stroke-linecap="round"/>
<line x1="450.00" y1="423.20" x2="450.00" y2="409.80" stroke="#665847" stroke-width="3" stroke-linecap="round"/>
<line x1="396.40" y1="450.00" x2="409.80" y2="450.00" stroke="#665847" stroke-width="3" stroke-linecap="round"/>
<line x1="490.20" y1="450.00" x2="503.60" y2="450.00" stroke="#665847" stroke-width="3" stroke-linecap="round"/>
<line x1="436.60" y1="490.20" x2="450.00" y2="490.20" stroke="#665847" stroke-width="3" stroke-linecap="round"/>
<line x1="450.00" y1="409.80" x2="450.00" y2="396.40" stroke="#665847" stroke-width="3" stroke-linecap="round"/>
<line x1="383.00" y1="450.00" x2="396.40" y2="450.00" stroke="#665847" stroke-width="3" stroke-linecap="round"/>
<line x1="503.60" y1="450.00" x2="517.00" y2="450.00" stroke="#665847" stroke-width="3" stroke-linecap="round"/>
<line x1="423.20" y1="490.20" x2="436.60" y2="490.20" stroke="#665847" stroke-width="3" stroke-linecap="round"/>
<line x1="450.00" y1="396.40" x2="450.00" y2="383.00" stroke="#665847" stroke-width="3" stroke-linecap="round"/>
<line x1="369.60" y1="450.00" x2="383.00" y2="450.00" stroke="#665847" stroke-width="3" stroke-linecap="round"/>
<line x1="517.00" y1="450.00" x2="530.40" y2="450.00" stroke="#665847" stroke-width="3" stroke-linecap="round"/>
<line x1="409.80" y1="490.20" x2="423.20" y2="490.20" stroke="#665847" stroke-width="3" stroke-linecap="round"/>
<line x1="450.00" y1="383.00" x2="450.00" y2="369.60" stroke="#665847" stroke-width="3" stroke-linecap="round"/>
<line x1="356.20" y1="450.00" x2="369.60" y2="450.00" stroke="#665847" stroke-width="3" stroke-linecap="round"/>
<line x1="530.40" y1="450.00" x2="543.80" y2="450.00" stroke="#665847" stroke-width="3" stroke-linecap="round"/>
<line x1="396.40" y1="490.20" x2="409.80" y2="490.20" stroke="#665847" stroke-width="3" stroke-linecap="round"/>
<line x1="450.00" y1="369.60" x2="450.00" y2="356.20" stroke="#665847" stroke-width="3" stroke-linecap="round"/>
<line x1="342.80" y1="450.00" x2="356.20" y2="450.00" stroke="#665847" stroke-width="3" stroke-linecap="round"/>
<line x1="543.80" y1="450.00" x2="557.20" y2="450.00" stroke="#665847" stroke-width="3" stroke-linecap="round"/>
<line x1="383.00" y1="490.20" x2="396.40" y2="490.20" stroke="#665847" stroke-width="3" stroke-linecap="round"/>
<line x1="450.00" y1="356.20" x2="450.00" y2="342.80" stroke="#665847" stroke-width="3" stroke-linecap="round"/>
<line x1="329.40" y1="450.00" x2="342.80" y2="450.00" stroke="#665847" stroke-width="3" stroke-linecap="round"/>
<line x1="557.20" y1="450.00" x2="570.60" y2="450.00" stroke="#665847" stroke-width="3" stroke-linecap="round"/>
<line x1="369.60" y1="490.20" x2="383.00" y2="490.20" stroke="#665847" stroke-width="3" stroke-linecap="round"/>
<line x1="450.00" y1="342.80" x2="450.00" y2="329.40" stroke="#665847" stroke-width="3" stroke-linecap="round"/>
<line x1="316.00" y1="450.00" x2="329.40" y2="450.00" stroke="#665847" stroke-width="3" stroke-linecap="round"/>
<line x1="570.60" y1="450.00" x2="584.00" y2="450.00" stroke="#665847" stroke-width="3" stroke-linecap="round"/>
<line x1="356.20" y1="490.20" x2="369.60" y2="490.20" stroke="#665847" stroke-width="3" stroke-linecap="round"/>
<line x1="450.00" y1="329.40" x2="450.00" y2="316.00" stroke="#665847" stroke-width="3" stroke-linecap="round"/>
<line x1="302.60" y1="450.00" x2="316.00" y2="450.00" stroke="#665847" stroke-width="3" stroke-linecap="round"/>
<line x1="584.00" y1="450.00" x2="597.40" y2="450.00" stroke="#665847" stroke-width="3" stroke-linecap="round"/>
<line x1="342.80" y1="490.20" x2="356.20" y2="490.20" stroke="#665847" stroke-width="3" stroke-linecap="round"/>
<line x1="450.00" y1="316.00" x2="450.00" y2="302.60" stroke="#665847" stroke-width="3" stroke-linecap="round"/>
<line x1="289.20" y1="450.00" x2="302.60" y2="450.00" stroke="#665847" stroke-width="3" stroke-linecap="round"/>
<line x1="597.40" y1="450.00" x2="610.80" y2="450.00" stroke="#665847" stroke-width="3" stroke-linecap="round"/>
<line x1="329.40" y1="490.20" x2="342.80" y2="490.20" stroke="#665847" stroke-width="3" stroke-linecap="round"/>
<line x1="450.00" y1="302.60" x2="450.00" y2="289.20" stroke="#665847" stroke-width="3" stroke-linecap="round"/>
<line x1="289.20" y1="463.40" x2="289.20" y2="450.00" stroke="#665847" stroke-width="3" stroke-linecap="round"/>
<line x1="610.80" y1="450.00" x2="624.20" y2="450.00" stroke="#665847" stroke-width="3" stroke-linecap="round"/>
<line x1="316.00" y1="490.20" x2="329.40" y2="490.20" stroke="#665847" stroke-width="3" stroke-linecap="round"/>
<line x1="450.00" y1="289.20" x2="450.00" y2="275.80" stroke="#665847" stroke-width="3" stroke-linecap="round"/>
<line x1="289.20" y1="476.80" x2="289.20" y2="463.40" stroke="#665847" stroke-width="3" stroke-linecap="round"/>
<line x1="624.20" y1="450.00" x2="637.60" y2="450.00" stroke="#665847" stroke-width="3" stroke-linecap="round"/>
<line x1="302.60" y1="490.20" x2="316.00" y2="490.20" stroke="#665847" stroke-width="3" stroke-linecap="round"/>
<line x1="450.00" y1="275.80" x2="450.00" y2="262.40" stroke="#665847" stroke-width="3" stroke-linecap="round"/>
<line x1="289.20" y1="490.20" x2="289.20" y2="476.80" stroke="#665847" stroke-width="3" stroke-linecap="round"/>
<line x1="637.60" y1="450.00" x2="651.00" y2="450.00" stroke="#665847" stroke-width="3" stroke-linecap="round"/>
<line x1="450.00" y1="262.40" x2="450.00" y2="249.00" stroke="#665847" stroke-width="3" stroke-linecap="round"/>
<line x1="289.20" y1="503.60" x2="289.20" y2="490.20" stroke="#665847" stroke-width="3" stroke-linecap="round"/>
<line x1="651.00" y1="450.00" x2="664.40" y2="450.00" stroke="#665847" stroke-width="3" stroke-linecap="round"/>
<line x1="450.00" y1="249.00" x2="450.00" y2="235.60" stroke="#665847" stroke-width="3" stroke-linecap="round"/>
<line x1="289.20" y1="517.00" x2="289.20" y2="503.60" stroke="#665847" stroke-width="3" stroke-linecap="round"/>
<line x1="664.40" y1="450.00" x2="677.80" y2="450.00" stroke="#665847" stroke-width="3" stroke-linecap="round"/>
<line x1="450.00" y1="235.60" x2="450.00" y2="222.20" stroke="#665847" stroke-width="3" stroke-linecap="round"/>
<line x1="289.20" y1="530.40" x2="289.20" y2="517.00" stroke="#665847" stroke-width="3" stroke-linecap="round"/>
<line x1="677.80" y1="450.00" x2="691.20" y2="450.00" stroke="#665847" stroke-width="3" stroke-linecap="round"/>
<line x1="450.00" y1="222.20" x2="450.00" y2="208.80" stroke="#665847" stroke-width="3" stroke-linecap="round"/>
<line x1="289.20" y1="543.80" x2="289.20" y2="530.40" stroke="#665847" stroke-width="3" stroke-linecap="round"/>
<line x1="691.20" y1="450.00" x2="704.60" y2="450.00" stroke="#665847" stroke-width="3" stroke-linecap="round"/>
<line x1="450.00" y1="208.80" x2="450.00" y2="195.40" stroke="#665847" stroke-width="3" stroke-linecap="round"/>
<line x1="289.20" y1="557.20" x2="289.20" y2="543.80" stroke="#665847" stroke-width="3" stroke-linecap="round"/>
<line x1="704.60" y1="450.00" x2="718.00" y2="450.00" stroke="#665847" stroke-width="3" stroke-linecap="round"/>
<line x1="450.00" y1="195.40" x2="450.00" y2="182.00" stroke="#665847" stroke-width="3" stroke-linecap="round"/>
<line x1="289.20" y1="570.60" x2="289.20" y2="557.20" stroke="#665847" stroke-width="3" stroke-linecap="round"/>
<line x1="718.00" y1="450.00" x2="731.40" y2="450.00" stroke="#665847" stroke-width="3" stroke-linecap="round"/>
<line x1="450.00" y1="182.00" x2="450.00" y2="168.60" stroke="#665847" stroke-width="3" stroke-linecap="round"/>
<line x1="289.20" y1="584.00" x2="289.20" y2="570.60" stroke="#665847" stroke-width="3" stroke-linecap="round"/>
<line x1="731.40" y1="450.00" x2="744.80" y2="450.00" stroke="#665847" stroke-width="3" stroke-linecap="round"/>
<line x1="450.00" y1="168.60" x2="450.00" y2="155.20" stroke="#665847" stroke-width="3" stroke-linecap="round"/>
<line x1="289.20" y1="597.40" x2="289.20" y2="584.00" stroke="#665847" stroke-width="3" stroke-linecap="round"/>
<line x1="744.80" y1="450.00" x2="758.20" y2="450.00" stroke="#665847" stroke-width="3" stroke-linecap="round"/>
<line x1="450.00" y1="155.20" x2="450.00" y2="141.80" stroke="#665847" stroke-width="3" stroke-linecap="round"/>
<line x1="289.20" y1="610.80" x2="289.20" y2="597.40" stroke="#665847" stroke-width="3" stroke-linecap="round"/>
<line x1="758.20" y1="450.00" x2="771.60" y2="450.00" stroke="#665847" stroke-width="3" stroke-linecap="round"/>
<line x1="450.00" y1="141.80" x2="450.00" y2="128.40" stroke="#665847" stroke-width="3" stroke-linecap="round"/>
<line x1="289.20" y1="624.20" x2="289.20" y2="610.80" stroke="#665847" stroke-width="3" stroke-linecap="round"/>
<line x1="771.60" y1="450.00" x2="785.00" y2="450.00" stroke="#665847" stroke-width="3" stroke-linecap="round"/>
<line x1="450.00" y1="128.40" x2="450.00" y2="115.00" stroke="#665847" stroke-width="3" stroke-linecap="round"/>
<line x1="289.20" y1="637.60" x2="289.20" y2="624.20" stroke="#665847" stroke-width="3" stroke-linecap="round"/>
<line x1="785.00" y1="450.00" x2="798.40" y2="450.00" stroke="#665847" stroke-width="3" stroke-linecap="round"/>
<line x1="436.60" y1="115.00" x2="450.00" y2="115.00" stroke="#665847" stroke-width="3" stroke-linecap="round"/>
<line x1="289.20" y1="651.00" x2="289.20" y2="637.60" stroke="#665847" stroke-width="3" stroke-linecap="round"/>
<line x1="798.40" y1="450.00" x2="811.80" y2="450.00" stroke="#665847" stroke-width="3" stroke-linecap="round"/>
<line x1="423.20" y1="115.00" x2="436.60" y2="115.00" stroke="#665847" stroke-width="3" stroke-linecap="round"/>
<line x1="289.20" y1="664.40" x2="289.20" y2="651.00" stroke="#665847" stroke-width="3" stroke-linecap="round"/>
<line x1="811.80" y1="450.00" x2="825.20" y2="450.00" stroke="#665847" stroke-width="3" stroke-linecap="round"/>
<line x1="409.80" y1="115.00" x2="423.20" y2="115.00" stroke="#665847" stroke-width="3" stroke-linecap="round"/>
<line x1="289.20" y1="677.80" x2="289.20" y2="664.40" stroke="#665847" stroke-width="3" stroke-linecap="round"/>
<line x1="825.20" y1="450.00" x2="838.60" y2="450.00" stroke="#665847" stroke-width="3" stroke-linecap="round"/>
<line x1="396.40" y1="115.00" x2="409.80" y2="115.00" stroke="#665847" stroke-width="3" stroke-linecap="round"/>
<line x1="289.20" y1="691.20" x2="289.20" y2="677.80" stroke="#665847" stroke-width="3" stroke-linecap="round"/>
<line x1="838.60" y1="450.00" x2="852.00" y2="450.00" stroke="#665847" stroke-width="3" stroke-linecap="round"/>
<line x1="383.00" y1="115.00" x2="396.40" y2="115.00" stroke="#665847" stroke-width="3" stroke-linecap="round"/>
<line x1="289.20" y1="704.60" x2="289.20" y2="691.20" stroke="#665847" stroke-width="3" stroke-linecap="round"/>
<line x1="369.60" y1="115.00" x2="383.00" y2="115.00" stroke="#665847" stroke-width="3" stroke-linecap="round"/>
<line x1="289.20" y1="718.00" x2="289.20" y2="704.60" stroke="#665847" stroke-width="3" stroke-linecap="round"/>
<line x1="356.20" y1="115.00" x2="369.60" y2="115.00" stroke="#665847" stroke-width="3" stroke-linecap="round"/>
<line x1="289.20" y1="731.40" x2="289.20" y2="718.00" stroke="#665847" stroke-width="3" stroke-linecap="round"/>
<line x1="342.80" y1="115.00" x2="356.20" y2="115.00" stroke="#665847" stroke-width="3" stroke-linecap="round"/>
<line x1="289.20" y1="744.80" x2="289.20" y2="731.40" stroke="#665847" stroke-width="3" stroke-linecap="round"/>
<line x1="329.40" y1="115.00" x2="342.80" y2="115.00" stroke="#665847" stroke-width="3" stroke-linecap="round"/>
<line x1="289.20" y1="758.20" x2="289.20" y2="744.80" stroke="#665847" stroke-width="3" stroke-linecap="round"/>
<line x1="316.00" y1="115.00" x2="329.40" y2="115.00" stroke="#665847" stroke-width="3" stroke-linecap="round"/>
<line x1="289.20" y1="771.60" x2="289.20" y2="758.20" stroke="#665847" stroke-width="3" stroke-linecap="round"/>
<line x1="302.60" y1="115.00" x2="316.00" y2="115.00" stroke="#665847" stroke-width="3" stroke-linecap="round"/>
<line x1="289.20" y1="785.00" x2="289.20" y2="771.60" stroke="#665847" stroke-width="3" stroke-linecap="round"/>
<line x1="289.20" y1="115.00" x2="302.60" y2="115.00" stroke="#665847" stroke-width="3" stroke-linecap="round"/>
<line x1="289.20" y1="798.40" x2="289.20" y2="785.00" stroke="#665847" stroke-width="3" stroke-linecap="round"/>
<line x1="275.80" y1="115.00" x2="289.20" y2="115.00" stroke="#665847" stroke-width="3" stroke-linecap="round"/>
<line x1="289.20" y1="811.80" x2="289.20" y2="798.40" stroke="#665847" stroke-width="3" stroke-linecap="round"/>
<line x1="262.40" y1="115.00" x2="275.80" y2="115.00" stroke="#665847" stroke-width="3" stroke-linecap="round"/>
<line x1="289.20" y1="825.20" x2="289.20" y2="811.80" stroke="#665847" stroke-width="3" stroke-linecap="round"/>
<line x1="249.00" y1="115.00" x2="262.40" y2="115.00" stroke="#665847" stroke-width="3" stroke-linecap="round"/>
<line x1="289.20" y1="838.60" x2="289.20" y2="825.20" stroke="#665847" stroke-width="3" stroke-linecap="round"/>
<line x1="235.60" y1="115.00" x2="249.00" y2="115.00" stroke="#665847" stroke-width="3" stroke-linecap="round"/>
<line x1="289.20" y1="852.00" x2="289.20" y2="838.60" stroke="#665847" stroke-width="3" stroke-linecap="round"/>
<line x1="222.20" y1="115.00" x2="235.60" y2="115.00" stroke="#665847" stroke-width="3" stroke-linecap="round"/>
<line x1="208.80" y1="115.00" x2="222.20" y2="115.00" stroke="#665847" stroke-width="3" stroke-linecap="round"/>
<line x1="195.40" y1="115.00" x2="208.80" y2="115.00" stroke="#665847" stroke-width="3" stroke-linecap="round"/>
<line x1="195.40" y1="115.00" x2="195.40" y2="101.60" stroke="#665847" stroke-width="3" stroke-linecap="round"/>
<line x1="195.40" y1="101.60" x2="195.40" y2="88.20" stroke="#665847" stroke-width="3" stroke-linecap="round"/>
<line x1="195.40" y1="88.20" x2="195.40" y2="74.80" stroke="#665847" stroke-width="3" stroke-linecap="round"/>
<line x1="195.40" y1="74.80" x2="195.40" y2="61.40" stroke="#665847" stroke-width="3" stroke-linecap="round"/>
<line x1="195.40" y1="61.40" x2="195.40" y2="48.00" stroke="#665847" stroke-width="3" stroke-linecap="round"/>
<line x1="436.60" y1="463.40" x2="436.60" y2="450.00" stroke="#9a8a73" stroke-width="1.5" stroke-linecap="round"/>
<line x1="423.20" y1="450.00" x2="423.20" y2="436.60" stroke="#9a8a73" stroke-width="1.5" stroke-linecap="round"/>
<line x1="409.80" y1="463.40" x2="409.80" y2="450.00" stroke="#9a8a73" stroke-width="1.5" stroke-linecap="round"/>
<line x1="329.40" y1="463.40" x2="329.40" y2="450.00" stroke="#9a8a73" stroke-width="1.5" stroke-linecap="round"/>
<line x1="289.20" y1="651.00" x2="302.60" y2="651.00" stroke="#9a8a73" stroke-width="1.5" stroke-linecap="round"/>
<line x1="289.20" y1="758.20" x2="302.60" y2="758.20" stroke="#9a8a73" stroke-width="1.5" stroke-linecap="round"/>
<line x1="289.20" y1="798.40" x2="302.60" y2="798.40" stroke="#9a8a73" stroke-width="1.5" stroke-linecap="round"/>
<line x1="289.20" y1="811.80" x2="302.60" y2="811.80" stroke="#9a8a73" stroke-width="1.5" stroke-linecap="round"/>
<line x1="463.40" y1="463.40" x2="463.40" y2="450.00" stroke="#9a8a73" stroke-width="1.5" stroke-linecap="round"/>
<line x1="490.20" y1="463.40" x2="490.20" y2="450.00" stroke="#9a8a73" stroke-width="1.5" stroke-linecap="round"/>
<line x1="543.80" y1="463.40" x2="543.80" y2="450.00" stroke="#9a8a73" stroke-width="1.5" stroke-linecap="round"/>
<line x1="557.20" y1="463.40" x2="557.20" y2="450.00" stroke="#9a8a73" stroke-width="1.5" stroke-linecap="round"/>
<line x1="584.00" y1="463.40" x2="584.00" y2="450.00" stroke="#9a8a73" stroke-width="1.5" stroke-linecap="round"/>
<line x1="651.00" y1="463.40" x2="651.00" y2="450.00" stroke="#9a8a73" stroke-width="1.5" stroke-linecap="round"/>
<line x1="771.60" y1="450.00" x2="771.60" y2="436.60" stroke="#9a8a73" stroke-width="1.5" stroke-linecap="round"/>
<line x1="798.40" y1="463.40" x2="798.40" y2="450.00" stroke="#9a8a73" stroke-width="1.5" stroke-linecap="round"/>
<line x1="450.00" y1="490.20" x2="463.40" y2="490.20" stroke="#9a8a73" stroke-width="1.5" stroke-linecap="round"/>
<line x1="302.60" y1="503.60" x2="302.60" y2="490.20" stroke="#9a8a73" stroke-width="1.5" stroke-linecap="round"/>
<line x1="450.00" y1="409.80" x2="463.40" y2="409.80" stroke="#9a8a73" stroke-width="1.5" stroke-linecap="round"/>
<line x1="450.00" y1="316.00" x2="463.40" y2="316.00" stroke="#9a8a73" stroke-width="1.5" stroke-linecap="round"/>
<line x1="450.00" y1="235.60" x2="463.40" y2="235.60" stroke="#9a8a73" stroke-width="1.5" stroke-linecap="round"/>
<line x1="450.00" y1="168.60" x2="463.40" y2="168.60" stroke="#9a8a73" stroke-width="1.5" stroke-linecap="round"/>
<line x1="450.00" y1="115.00" x2="450.00" y2="101.60" stroke="#9a8a73" stroke-width="1.5" stroke-linecap="round"/>
<line x1="342.80" y1="128.40" x2="342.80" y2="115.00" stroke="#9a8a73" stroke-width="1.5" stroke-linecap="round"/>
<line x1="235.60" y1="128.40" x2="235.60" y2="115.00" stroke="#9a8a73" stroke-width="1.5" stroke-linecap="round"/>
<line x1="182.00" y1="101.60" x2="195.40" y2="101.60" stroke="#9a8a73" stroke-width="1.5" stroke-linecap="round"/>
<line x1="396.40" y1="450.00" x2="396.40" y2="436.60" stroke="#9a8a73" stroke-width="1.5" stroke-linecap="round"/>
<line x1="436.60" y1="476.80" x2="436.60" y2="463.40" stroke="#9a8a73" stroke-width="1.5" stroke-linecap="round"/>
<line x1="423.20" y1="436.60" x2="423.20" y2="423.20" stroke="#9a8a73" stroke-width="1.5" stroke-linecap="round"/>
<line x1="396.40" y1="463.40" x2="409.80" y2="463.40" stroke="#9a8a73" stroke-width="1.5" stroke-linecap="round"/>
<line x1="329.40" y1="476.80" x2="329.40" y2="463.40" stroke="#9a8a73" stroke-width="1.5" stroke-linecap="round"/>
<line x1="302.60" y1="651.00" x2="316.00" y2="651.00" stroke="#9a8a73" stroke-width="1.5" stroke-linecap="round"/>
<line x1="302.60" y1="758.20" x2="316.00" y2="758.20" stroke="#9a8a73" stroke-width="1.5" stroke-linecap="round"/>
<line x1="302.60" y1="811.80" x2="302.60" y2="798.40" stroke="#9a8a73" stroke-width="1.5" stroke-linecap="round"/>
<line x1="302.60" y1="825.20" x2="302.60" y2="811.80" stroke="#9a8a73" stroke-width="1.5" stroke-linecap="round"/>
<line x1="490.20" y1="476.80" x2="490.20" y2="463.40" stroke="#9a8a73" stroke-width="1.5" stroke-linecap="round"/>
<line x1="543.80" y1="476.80" x2="543.80" y2="463.40" stroke="#9a8a73" stroke-width="1.5" stroke-linecap="round"/>
<line x1="557.20" y1="476.80" x2="557.20" y2="463.40" stroke="#9a8a73" stroke-width="1.5" stroke-linecap="round"/>
<line x1="584.00" y1="463.40" x2="597.40" y2="463.40" stroke="#9a8a73" stroke-width="1.5" stroke-linecap="round"/>
<line x1="651.00" y1="476.80" x2="651.00" y2="463.40" stroke="#9a8a73" stroke-width="1.5" stroke-linecap="round"/>
<line x1="771.60" y1="436.60" x2="771.60" y2="423.20" stroke="#9a8a73" stroke-width="1.5" stroke-linecap="round"/>
<line x1="798.40" y1="476.80" x2="798.40" y2="463.40" stroke="#9a8a73" stroke-width="1.5" stroke-linecap="round"/>
<line x1="838.60" y1="436.60" x2="852.00" y2="436.60" stroke="#9a8a73" stroke-width="1.5" stroke-linecap="round"/>
<line x1="463.40" y1="490.20" x2="476.80" y2="490.20" stroke="#9a8a73" stroke-width="1.5" stroke-linecap="round"/>
<line x1="302.60" y1="517.00" x2="302.60" y2="503.60" stroke="#9a8a73" stroke-width="1.5" stroke-linecap="round"/>
<line x1="463.40" y1="423.20" x2="463.40" y2="409.80" stroke="#9a8a73" stroke-width="1.5" stroke-linecap="round"/>
<line x1="463.40" y1="316.00" x2="463.40" y2="302.60" stroke="#9a8a73" stroke-width="1.5" stroke-linecap="round"/>
<line x1="463.40" y1="249.00" x2="463.40" y2="235.60" stroke="#9a8a73" stroke-width="1.5" stroke-linecap="round"/>
<line x1="463.40" y1="168.60" x2="476.80" y2="168.60" stroke="#9a8a73" stroke-width="1.5" stroke-linecap="round"/>
<line x1="436.60" y1="101.60" x2="450.00" y2="101.60" stroke="#9a8a73" stroke-width="1.5" stroke-linecap="round"/>
<line x1="342.80" y1="141.80" x2="342.80" y2="128.40" stroke="#9a8a73" stroke-width="1.5" stroke-linecap="round"/>
<line x1="235.60" y1="141.80" x2="235.60" y2="128.40" stroke="#9a8a73" stroke-width="1.5" stroke-linecap="round"/>
<line x1="168.60" y1="101.60" x2="182.00" y2="101.60" stroke="#9a8a73" stroke-width="1.5" stroke-linecap="round"/>
<line x1="396.40" y1="436.60" x2="396.40" y2="423.20" stroke="#9a8a73" stroke-width="1.5" stroke-linecap="round"/>
<line x1="423.20" y1="476.80" x2="436.60" y2="476.80" stroke="#9a8a73" stroke-width="1.5" stroke-linecap="round"/>
<line x1="423.20" y1="423.20" x2="423.20" y2="409.80" stroke="#9a8a73" stroke-width="1.5" stroke-linecap="round"/>
<line x1="383.00" y1="463.40" x2="396.40" y2="463.40" stroke="#9a8a73" stroke-width="1.5" stroke-linecap="round"/>
<line x1="329.40" y1="490.20" x2="329.40" y2="476.80" stroke="#9a8a73" stroke-width="1.5" stroke-linecap="round"/>
<line x1="316.00" y1="651.00" x2="329.40" y2="651.00" stroke="#9a8a73" stroke-width="1.5" stroke-linecap="round"/>
<line x1="316.00" y1="758.20" x2="316.00" y2="744.80" stroke="#9a8a73" stroke-width="1.5" stroke-linecap="round"/>
<line x1="289.20" y1="825.20" x2="302.60" y2="825.20" stroke="#9a8a73" stroke-width="1.5" stroke-linecap="round"/>
<line x1="490.20" y1="490.20" x2="490.20" y2="476.80" stroke="#9a8a73" stroke-width="1.5" stroke-linecap="round"/>
<line x1="543.80" y1="490.20" x2="543.80" y2="476.80" stroke="#9a8a73" stroke-width="1.5" stroke-linecap="round"/>
<line x1="557.20" y1="490.20" x2="557.20" y2="476.80" stroke="#9a8a73" stroke-width="1.5" stroke-linecap="round"/>
<line x1="597.40" y1="463.40" x2="610.80" y2="463.40" stroke="#9a8a73" stroke-width="1.5" stroke-linecap="round"/>
<line x1="651.00" y1="490.20" x2="651.00" y2="476.80" stroke="#9a8a73" stroke-width="1.5" stroke-linecap="round"/>
<line x1="771.60" y1="423.20" x2="771.60" y2="409.80" stroke="#9a8a73" stroke-width="1.5" stroke-linecap="round"/>
<line x1="785.00" y1="476.80" x2="798.40" y2="476.80" stroke="#9a8a73" stroke-width="1.5" stroke-linecap="round"/>
<line x1="825.20" y1="436.60" x2="838.60" y2="436.60" stroke="#9a8a73" stroke-width="1.5" stroke-linecap="round"/>
<line x1="476.80" y1="490.20" x2="490.20" y2="490.20" stroke="#9a8a73" stroke-width="1.5" stroke-linecap="round"/>
<line x1="302.60" y1="530.40" x2="302.60" y2="517.00" stroke="#9a8a73" stroke-width="1.5" stroke-linecap="round"/>
<line x1="463.40" y1="436.60" x2="463.40" y2="423.20" stroke="#9a8a73" stroke-width="1.5" stroke-linecap="round"/>
<line x1="450.00" y1="302.60" x2="463.40" y2="302.60" stroke="#9a8a73" stroke-width="1.5" stroke-linecap="round"/>
<line x1="463.40" y1="262.40" x2="463.40" y2="249.00" stroke="#9a8a73" stroke-width="1.5" stroke-linecap="round"/>
<line x1="476.80" y1="182.00" x2="476.80" y2="168.60" stroke="#9a8a73" stroke-width="1.5" stroke-linecap="round"/>
<line x1="423.20" y1="101.60" x2="436.60" y2="101.60" stroke="#9a8a73" stroke-width="1.5" stroke-linecap="round"/>
<line x1="342.80" y1="141.80" x2="356.20" y2="141.80" stroke="#9a8a73" stroke-width="1.5" stroke-linecap="round"/>
<line x1="235.60" y1="141.80" x2="249.00" y2="141.80" stroke="#9a8a73" stroke-width="1.5" stroke-linecap="round"/>
<line x1="155.20" y1="101.60" x2="168.60" y2="101.60" stroke="#9a8a73" stroke-width="1.5" stroke-linecap="round"/>
<line x1="396.40" y1="423.20" x2="396.40" y2="409.80" stroke="#9a8a73" stroke-width="1.5" stroke-linecap="round"/>
<line x1="409.80" y1="476.80" x2="423.20" y2="476.80" stroke="#9a8a73" stroke-width="1.5" stroke-linecap="round"/>
<line x1="423.20" y1="409.80" x2="423.20" y2="396.40" stroke="#9a8a73" stroke-width="1.5" stroke-linecap="round"/>
<line x1="369.60" y1="463.40" x2="383.00" y2="463.40" stroke="#9a8a73" stroke-width="1.5" stroke-linecap="round"/>
<line x1="329.40" y1="651.00" x2="342.80" y2="651.00" stroke="#9a8a73" stroke-width="1.5" stroke-linecap="round"/>
<line x1="302.60" y1="744.80" x2="316.00" y2="744.80" stroke="#9a8a73" stroke-width="1.5" stroke-linecap="round"/>
<line x1="530.40" y1="490.20" x2="543.80" y2="490.20" stroke="#9a8a73" stroke-width="1.5" stroke-linecap="round"/>
<line x1="557.20" y1="503.60" x2="557.20" y2="490.20" stroke="#9a8a73" stroke-width="1.5" stroke-linecap="round"/>
<line x1="610.80" y1="476.80" x2="610.80" y2="463.40" stroke="#9a8a73" stroke-width="1.5" stroke-linecap="round"/>
<line x1="651.00" y1="503.60" x2="651.00" y2="490.20" stroke="#9a8a73" stroke-width="1.5" stroke-linecap="round"/>
<line x1="771.60" y1="409.80" x2="771.60" y2="396.40" stroke="#9a8a73" stroke-width="1.5" stroke-linecap="round"/>
<line x1="771.60" y1="476.80" x2="785.00" y2="476.80" stroke="#9a8a73" stroke-width="1.5" stroke-linecap="round"/>
<line x1="811.80" y1="436.60" x2="825.20" y2="436.60" stroke="#9a8a73" stroke-width="1.5" stroke-linecap="round"/>
<line x1="302.60" y1="543.80" x2="302.60" y2="530.40" stroke="#9a8a73" stroke-width="1.5" stroke-linecap="round"/>
<line x1="463.40" y1="450.00" x2="463.40" y2="436.60" stroke="#9a8a73" stroke-width="1.5" stroke-linecap="round"/>
<line x1="463.40" y1="275.80" x2="463.40" y2="262.40" stroke="#9a8a73" stroke-width="1.5" stroke-linecap="round"/>
<line x1="476.80" y1="182.00" x2="490.20" y2="182.00" stroke="#9a8a73" stroke-width="1.5" stroke-linecap="round"/>
<line x1="409.80" y1="101.60" x2="423.20" y2="101.60" stroke="#9a8a73" stroke-width="1.5" stroke-linecap="round"/>
<line x1="356.20" y1="141.80" x2="369.60" y2="141.80" stroke="#9a8a73" stroke-width="1.5" stroke-linecap="round"/>
<line x1="249.00" y1="155.20" x2="249.00" y2="141.80" stroke="#9a8a73" stroke-width="1.5" stroke-linecap="round"/>
<line x1="141.80" y1="101.60" x2="155.20" y2="101.60" stroke="#9a8a73" stroke-width="1.5" stroke-linecap="round"/>
<line x1="383.00" y1="409.80" x2="396.40" y2="409.80" stroke="#9a8a73" stroke-width="1.5" stroke-linecap="round"/>
<line x1="396.40" y1="476.80" x2="409.80" y2="476.80" stroke="#9a8a73" stroke-width="1.5" stroke-linecap="round"/>
<line x1="409.80" y1="396.40" x2="423.20" y2="396.40" stroke="#9a8a73" stroke-width="1.5" stroke-linecap="round"/>
<line x1="356.20" y1="463.40" x2="369.60" y2="463.40" stroke="#9a8a73" stroke-width="1.5" stroke-linecap="round"/>
<line x1="342.80" y1="651.00" x2="356.20" y2="651.00" stroke="#9a8a73" stroke-width="1.5" stroke-linecap="round"/>
<line x1="289.20" y1="744.80" x2="302.60" y2="744.80" stroke="#9a8a73" stroke-width="1.5" stroke-linecap="round"/>
<line x1="530.40" y1="490.20" x2="530.40" y2="476.80" stroke="#9a8a73" stroke-width="1.5" stroke-linecap="round"/>
<line x1="557.20" y1="517.00" x2="557.20" y2="503.60" stroke="#9a8a73" stroke-width="1.5" stroke-linecap="round"/>
<line x1="610.80" y1="476.80" x2="624.20" y2="476.80" stroke="#9a8a73" stroke-width="1.5" stroke-linecap="round"/>
<line x1="651.00" y1="517.00" x2="651.00" y2="503.60" stroke="#9a8a73" stroke-width="1.5" stroke-linecap="round"/>
<line x1="771.60" y1="396.40" x2="785.00" y2="396.40" stroke="#9a8a73" stroke-width="1.5" stroke-linecap="round"/>
<line x1="771.60" y1="476.80" x2="771.60" y2="463.40" stroke="#9a8a73" stroke-width="1.5" stroke-linecap="round"/>
<line x1="798.40" y1="436.60" x2="811.80" y2="436.60" stroke="#9a8a73" stroke-width="1.5" stroke-linecap="round"/>
<line x1="302.60" y1="557.20" x2="302.60" y2="543.80" stroke="#9a8a73" stroke-width="1.5" stroke-linecap="round"/>
<line x1="463.40" y1="289.20" x2="463.40" y2="275.80" stroke="#9a8a73" stroke-width="1.5" stroke-linecap="round"/>
<line x1="490.20" y1="195.40" x2="490.20" y2="182.00" stroke="#9a8a73" stroke-width="1.5" stroke-linecap="round"/>
<line x1="396.40" y1="101.60" x2="409.80" y2="101.60" stroke="#9a8a73" stroke-width="1.5" stroke-linecap="round"/>
<line x1="369.60" y1="141.80" x2="383.00" y2="141.80" stroke="#9a8a73" stroke-width="1.5" stroke-linecap="round"/>
<line x1="128.40" y1="101.60" x2="141.80" y2="101.60" stroke="#9a8a73" stroke-width="1.5" stroke-linecap="round"/>
<line x1="369.60" y1="409.80" x2="383.00" y2="409.80" stroke="#9a8a73" stroke-width="1.5" stroke-linecap="round"/>
<line x1="383.00" y1="476.80" x2="396.40" y2="476.80" stroke="#9a8a73" stroke-width="1.5" stroke-linecap="round"/>
<line x1="409.80" y1="409.80" x2="409.80" y2="396.40" stroke="#9a8a73" stroke-width="1.5" stroke-linecap="round"/>
<line x1="342.80" y1="463.40" x2="356.20" y2="463.40" stroke="#9a8a73" stroke-width="1.5" stroke-linecap="round"/>
<line x1="356.20" y1="651.00" x2="369.60" y2="651.00" stroke="#9a8a73" stroke-width="1.5" stroke-linecap="round"/>
<line x1="530.40" y1="476.80" x2="530.40" y2="463.40" stroke="#9a8a73" stroke-width="1.5" stroke-linecap="round"/>
<line x1="543.80" y1="517.00" x2="557.20" y2="517.00" stroke="#9a8a73" stroke-width="1.5" stroke-linecap="round"/>
<line x1="624.20" y1="490.20" x2="624.20" y2="476.80" stroke="#9a8a73" stroke-width="1.5" stroke-linecap="round"/>
<line x1="651.00" y1="530.40" x2="651.00" y2="517.00" stroke="#9a8a73" stroke-width="1.5" stroke-linecap="round"/>
<line x1="785.00" y1="396.40" x2="798.40" y2="396.40" stroke="#9a8a73" stroke-width="1.5" stroke-linecap="round"/>
<line x1="771.60" y1="463.40" x2="771.60" y2="450.00" stroke="#9a8a73" stroke-width="1.5" stroke-linecap="round"/>
<line x1="785.00" y1="436.60" x2="798.40" y2="436.60" stroke="#9a8a73" stroke-width="1.5" stroke-linecap="round"/>
<line x1="302.60" y1="557.20" x2="316.00" y2="557.20" stroke="#9a8a73" stroke-width="1.5" stroke-linecap="round"/>
<line x1="450.00" y1="289.20" x2="463.40" y2="289.20" stroke="#9a8a73" stroke-width="1.5" stroke-linecap="round"/>
<line x1="490.20" y1="208.80" x2="490.20" y2="195.40" stroke="#9a8a73" stroke-width="1.5" stroke-linecap="round"/>
<line x1="383.00" y1="101.60" x2="396.40" y2="101.60" stroke="#9a8a73" stroke-width="1.5" stroke-linecap="round"/>
<line x1="383.00" y1="155.20" x2="383.00" y2="141.80" stroke="#9a8a73" stroke-width="1.5" stroke-linecap="round"/>
<line x1="115.00" y1="101.60" x2="128.40" y2="101.60" stroke="#9a8a73" stroke-width="1.5" stroke-linecap="round"/>
<line x1="369.60" y1="423.20" x2="369.60" y2="409.80" stroke="#9a8a73" stroke-width="1.5" stroke-linecap="round"/>
<line x1="369.60" y1="476.80" x2="383.00" y2="476.80" stroke="#9a8a73" stroke-width="1.5" stroke-linecap="round"/>
<line x1="409.80" y1="423.20" x2="409.80" y2="409.80" stroke="#9a8a73" stroke-width="1.5" stroke-linecap="round"/>
<line x1="329.40" y1="463.40" x2="342.80" y2="463.40" stroke="#9a8a73" stroke-width="1.5" stroke-linecap="round"/>
<line x1="369.60" y1="651.00" x2="383.00" y2="651.00" stroke="#9a8a73" stroke-width="1.5" stroke-linecap="round"/>
<line x1="530.40" y1="463.40" x2="530.40" y2="450.00" stroke="#9a8a73" stroke-width="1.5" stroke-linecap="round"/>
<line x1="530.40" y1="517.00" x2="543.80" y2="517.00" stroke="#9a8a73" stroke-width="1.5" stroke-linecap="round"/>
<line x1="624.20" y1="503.60" x2="624.20" y2="490.20" stroke="#9a8a73" stroke-width="1.5" stroke-linecap="round"/>
<line x1="651.00" y1="543.80" x2="651.00" y2="530.40" stroke="#9a8a73" stroke-width="1.5" stroke-linecap="round"/>
<line x1="798.40" y1="396.40" x2="811.80" y2="396.40" stroke="#9a8a73" stroke-width="1.5" stroke-linecap="round"/>
<line x1="771.60" y1="436.60" x2="785.00" y2="436.60" stroke="#9a8a73" stroke-width="1.5" stroke-linecap="round"/>
<line x1="316.00" y1="557.20" x2="329.40" y2="557.20" stroke="#9a8a73" stroke-width="1.5" stroke-linecap="round"/>
<line x1="476.80" y1="208.80" x2="490.20" y2="208.80" stroke="#9a8a73" stroke-width="1.5" stroke-linecap="round"/>
<line x1="369.60" y1="101.60" x2="383.00" y2="101.60" stroke="#9a8a73" stroke-width="1.5" stroke-linecap="round"/>
<line x1="383.00" y1="155.20" x2="396.40" y2="155.20" stroke="#9a8a73" stroke-width="1.5" stroke-linecap="round"/>
<line x1="101.60" y1="101.60" x2="115.00" y2="101.60" stroke="#9a8a73" stroke-width="1.5" stroke-linecap="round"/>
<line x1="356.20" y1="476.80" x2="369.60" y2="476.80" stroke="#9a8a73" stroke-width="1.5" stroke-linecap="round"/>
<line x1="409.80" y1="423.20" x2="423.20" y2="423.20" stroke="#9a8a73" stroke-width="1.5" stroke-linecap="round"/>
<line x1="383.00" y1="651.00" x2="396.40" y2="651.00" stroke="#9a8a73" stroke-width="1.5" stroke-linecap="round"/>
<line x1="517.00" y1="517.00" x2="530.40" y2="517.00" stroke="#9a8a73" stroke-width="1.5" stroke-linecap="round"/>
<line x1="624.20" y1="517.00" x2="624.20" y2="503.60" stroke="#9a8a73" stroke-width="1.5" stroke-linecap="round"/>
<line x1="651.00" y1="543.80" x2="664.40" y2="543.80" stroke="#9a8a73" stroke-width="1.5" stroke-linecap="round"/>
<line x1="811.80" y1="396.40" x2="811.80" y2="383.00" stroke="#9a8a73" stroke-width="1.5" stroke-linecap="round"/>
<line x1="329.40" y1="557.20" x2="342.80" y2="557.20" stroke="#9a8a73" stroke-width="1.5" stroke-linecap="round"/>
<line x1="476.80" y1="208.80" x2="476.80" y2="195.40" stroke="#9a8a73" stroke-width="1.5" stroke-linecap="round"/>
<line x1="369.60" y1="101.60" x2="369.60" y2="88.20" stroke="#9a8a73" stroke-width="1.5" stroke-linecap="round"/>
<line x1="396.40" y1="155.20" x2="409.80" y2="155.20" stroke="#9a8a73" stroke-width="1.5" stroke-linecap="round"/>
<line x1="101.60" y1="101.60" x2="101.60" y2="88.20" stroke="#9a8a73" stroke-width="1.5" stroke-linecap="round"/>
<line x1="342.80" y1="476.80" x2="356.20" y2="476.80" stroke="#9a8a73" stroke-width="1.5" stroke-linecap="round"/>
<line x1="396.40" y1="651.00" x2="409.80" y2="651.00" stroke="#9a8a73" stroke-width="1.5" stroke-linecap="round"/>
<line x1="503.60" y1="517.00" x2="517.00" y2="517.00" stroke="#9a8a73" stroke-width="1.5" stroke-linecap="round"/>
<line x1="624.20" y1="517.00" x2="637.60" y2="517.00" stroke="#9a8a73" stroke-width="1.5" stroke-linecap="round"/>
<line x1="664.40" y1="543.80" x2="664.40" y2="530.40" stroke="#9a8a73" stroke-width="1.5" stroke-linecap="round"/>
<line x1="811.80" y1="383.00" x2="811.80" y2="369.60" stroke="#9a8a73" stroke-width="1.5" stroke-linecap="round"/>
<line x1="342.80" y1="557.20" x2="356.20" y2="557.20" stroke="#9a8a73" stroke-width="1.5" stroke-linecap="round"/>
<line x1="476.80" y1="195.40" x2="476.80" y2="182.00" stroke="#9a8a73" stroke-width="1.5" stroke-linecap="round"/>
<line x1="369.60" y1="88.20" x2="369.60" y2="74.80" stroke="#9a8a73" stroke-width="1.5" stroke-linecap="round"/>
<line x1="409.80" y1="155.20" x2="423.20" y2="155.20" stroke="#9a8a73" stroke-width="1.5" stroke-linecap="round"/>
<line x1="101.60" y1="88.20" x2="115.00" y2="88.20" stroke="#9a8a73" stroke-width="1.5" stroke-linecap="round"/>
<line x1="329.40" y1="476.80" x2="342.80" y2="476.80" stroke="#9a8a73" stroke-width="1.5" stroke-linecap="round"/>
<line x1="409.80" y1="651.00" x2="423.20" y2="651.00" stroke="#9a8a73" stroke-width="1.5" stroke-linecap="round"/>
<line x1="503.60" y1="530.40" x2="503.60" y2="517.00" stroke="#9a8a73" stroke-width="1.5" stroke-linecap="round"/>
<line x1="637.60" y1="517.00" x2="651.00" y2="517.00" stroke="#9a8a73" stroke-width="1.5" stroke-linecap="round"/>
<line x1="664.40" y1="530.40" x2="677.80" y2="530.40" stroke="#9a8a73" stroke-width="1.5" stroke-linecap="round"/>
<line x1="811.80" y1="369.60" x2="811.80" y2="356.20" stroke="#9a8a73" stroke-width="1.5" stroke-linecap="round"/>
<line x1="356.20" y1="557.20" x2="369.60" y2="557.20" stroke="#9a8a73" stroke-width="1.5" stroke-linecap="round"/>
<line x1="423.20" y1="155.20" x2="436.60" y2="155.20" stroke="#9a8a73" stroke-width="1.5" stroke-linecap="round"/>
<line x1="115.00" y1="88.20" x2="115.00" y2="74.80" stroke="#9a8a73" stroke-width="1.5" stroke-linecap="round"/>
<line x1="423.20" y1="651.00" x2="436.60" y2="651.00" stroke="#9a8a73" stroke-width="1.5" stroke-linecap="round"/>
<line x1="503.60" y1="543.80" x2="503.60" y2="530.40" stroke="#9a8a73" stroke-width="1.5" stroke-linecap="round"/>
<line x1="677.80" y1="530.40" x2="691.20" y2="530.40" stroke="#9a8a73" stroke-width="1.5" stroke-linecap="round"/>
<line x1="811.80" y1="356.20" x2="811.80" y2="342.80" stroke="#9a8a73" stroke-width="1.5" stroke-linecap="round"/>
<line x1="369.60" y1="557.20" x2="383.00" y2="557.20" stroke="#9a8a73" stroke-width="1.5" stroke-linecap="round"/>
<line x1="436.60" y1="168.60" x2="436.60" y2="155.20" stroke="#9a8a73" stroke-width="1.5" stroke-linecap="round"/>
<line x1="436.60" y1="664.40" x2="436.60" y2="651.00" stroke="#9a8a73" stroke-width="1.5" stroke-linecap="round"/>
<line x1="503.60" y1="557.20" x2="503.60" y2="543.80" stroke="#9a8a73" stroke-width="1.5" stroke-linecap="round"/>
<line x1="691.20" y1="530.40" x2="704.60" y2="530.40" stroke="#9a8a73" stroke-width="1.5" stroke-linecap="round"/>
<line x1="811.80" y1="342.80" x2="811.80" y2="329.40" stroke="#9a8a73" stroke-width="1.5" stroke-linecap="round"/>
<line x1="383.00" y1="557.20" x2="383.00" y2="543.80" stroke="#9a8a73" stroke-width="1.5" stroke-linecap="round"/>
<line x1="436.60" y1="182.00" x2="436.60" y2="168.60" stroke="#9a8a73" stroke-width="1.5" stroke-linecap="round"/>
<line x1="436.60" y1="677.80" x2="436.60" y2="664.40" stroke="#9a8a73" stroke-width="1.5" stroke-linecap="round"/>
<line x1="490.20" y1="557.20" x2="503.60" y2="557.20" stroke="#9a8a73" stroke-width="1.5" stroke-linecap="round"/>
<line x1="704.60" y1="530.40" x2="704.60" y2="517.00" stroke="#9a8a73" stroke-width="1.5" stroke-linecap="round"/>
<line x1="811.80" y1="329.40" x2="811.80" y2="316.00" stroke="#9a8a73" stroke-width="1.5" stroke-linecap="round"/>
<line x1="383.00" y1="543.80" x2="383.00" y2="530.40" stroke="#9a8a73" stroke-width="1.5" stroke-linecap="round"/>
<line x1="436.60" y1="195.40" x2="436.60" y2="182.00" stroke="#9a8a73" stroke-width="1.5" stroke-linecap="round"/>
<line x1="423.20" y1="677.80" x2="436.60" y2="677.80" stroke="#9a8a73" stroke-width="1.5" stroke-linecap="round"/>
<line x1="476.80" y1="557.20" x2="490.20" y2="557.20" stroke="#9a8a73" stroke-width="1.5" stroke-linecap="round"/>
<line x1="704.60" y1="517.00" x2="704.60" y2="503.60" stroke="#9a8a73" stroke-width="1.5" stroke-linecap="round"/>
<line x1="811.80" y1="316.00" x2="811.80" y2="302.60" stroke="#9a8a73" stroke-width="1.5" stroke-linecap="round"/>
<line x1="369.60" y1="530.40" x2="383.00" y2="530.40" stroke="#9a8a73" stroke-width="1.5" stroke-linecap="round"/>
<line x1="436.60" y1="208.80" x2="436.60" y2="195.40" stroke="#9a8a73" stroke-width="1.5" stroke-linecap="round"/>
<line x1="409.80" y1="677.80" x2="423.20" y2="677.80" stroke="#9a8a73" stroke-width="1.5" stroke-linecap="round"/>
<line x1="463.40" y1="557.20" x2="476.80" y2="557.20" stroke="#9a8a73" stroke-width="1.5" stroke-linecap="round"/>
<line x1="704.60" y1="503.60" x2="704.60" y2="490.20" stroke="#9a8a73" stroke-width="1.5" stroke-linecap="round"/>
<line x1="798.40" y1="302.60" x2="811.80" y2="302.60" stroke="#9a8a73" stroke-width="1.5" stroke-linecap="round"/>
<line x1="369.60" y1="543.80" x2="369.60" y2="530.40" stroke="#9a8a73" stroke-width="1.5" stroke-linecap="round"/>
<line x1="423.20" y1="208.80" x2="436.60" y2="208.80" stroke="#9a8a73" stroke-width="1.5" stroke-linecap="round"/>
<line x1="396.40" y1="677.80" x2="409.80" y2="677.80" stroke="#9a8a73" stroke-width="1.5" stroke-linecap="round"/>
<line x1="450.00" y1="557.20" x2="463.40" y2="557.20" stroke="#9a8a73" stroke-width="1.5" stroke-linecap="round"/>
<line x1="704.60" y1="490.20" x2="704.60" y2="476.80" stroke="#9a8a73" stroke-width="1.5" stroke-linecap="round"/>
<line x1="785.00" y1="302.60" x2="798.40" y2="302.60" stroke="#9a8a73" stroke-width="1.5" stroke-linecap="round"/>
<line x1="369.60" y1="557.20" x2="369.60" y2="543.80" stroke="#9a8a73" stroke-width="1.5" stroke-linecap="round"/>
<line x1="409.80" y1="208.80" x2="423.20" y2="208.80" stroke="#9a8a73" stroke-width="1.5" stroke-linecap="round"/>
<line x1="383.00" y1="677.80" x2="396.40" y2="677.80" stroke="#9a8a73" stroke-width="1.5" stroke-linecap="round"/>
<line x1="436.60" y1="557.20" x2="450.00" y2="557.20" stroke="#9a8a73" stroke-width="1.5" stroke-linecap="round"/>
<line x1="771.60" y1="302.60" x2="785.00" y2="302.60" stroke="#9a8a73" stroke-width="1.5" stroke-linecap="round"/>
<line x1="396.40" y1="208.80" x2="409.80" y2="208.80" stroke="#9a8a73" stroke-width="1.5" stroke-linecap="round"/>
<line x1="369.60" y1="677.80" x2="383.00" y2="677.80" stroke="#9a8a73" stroke-width="1.5" stroke-linecap="round"/>
<line x1="436.60" y1="557.20" x2="436.60" y2="543.80" stroke="#9a8a73" stroke-width="1.5" stroke-linecap="round"/>
<line x1="758.20" y1="302.60" x2="771.60" y2="302.60" stroke="#9a8a73" stroke-width="1.5" stroke-linecap="round"/>
<line x1="396.40" y1="208.80" x2="396.40" y2="195.40" stroke="#9a8a73" stroke-width="1.5" stroke-linecap="round"/>
<line x1="369.60" y1="677.80" x2="369.60" y2="664.40" stroke="#9a8a73" stroke-width="1.5" stroke-linecap="round"/>
<line x1="423.20" y1="543.80" x2="436.60" y2="543.80" stroke="#9a8a73" stroke-width="1.5" stroke-linecap="round"/>
<line x1="744.80" y1="302.60" x2="758.20" y2="302.60" stroke="#9a8a73" stroke-width="1.5" stroke-linecap="round"/>
<line x1="396.40" y1="195.40" x2="396.40" y2="182.00" stroke="#9a8a73" stroke-width="1.5" stroke-linecap="round"/>
<line x1="369.60" y1="664.40" x2="369.60" y2="651.00" stroke="#9a8a73" stroke-width="1.5" stroke-linecap="round"/>
<line x1="409.80" y1="543.80" x2="423.20" y2="543.80" stroke="#9a8a73" stroke-width="1.5" stroke-linecap="round"/>
<line x1="731.40" y1="302.60" x2="744.80" y2="302.60" stroke="#9a8a73" stroke-width="1.5" stroke-linecap="round"/>
<line x1="383.00" y1="182.00" x2="396.40" y2="182.00" stroke="#9a8a73" stroke-width="1.5" stroke-linecap="round"/>
<line x1="396.40" y1="543.80" x2="409.80" y2="543.80" stroke="#9a8a73" stroke-width="1.5" stroke-linecap="round"/>
<line x1="718.00" y1="302.60" x2="731.40" y2="302.60" stroke="#9a8a73" stroke-width="1.5" stroke-linecap="round"/>
<line x1="396.40" y1="557.20" x2="396.40" y2="543.80" stroke="#9a8a73" stroke-width="1.5" stroke-linecap="round"/>
<line x1="704.60" y1="302.60" x2="718.00" y2="302.60" stroke="#9a8a73" stroke-width="1.5" stroke-linecap="round"/>
<line x1="691.20" y1="302.60" x2="704.60" y2="302.60" stroke="#9a8a73" stroke-width="1.5" stroke-linecap="round"/>
<line x1="691.20" y1="302.60" x2="691.20" y2="289.20" stroke="#9a8a73" stroke-width="1.5" stroke-linecap="round"/>
<line x1="691.20" y1="289.20" x2="704.60" y2="289.20" stroke="#9a8a73" stroke-width="1.5" stroke-linecap="round"/>
<line x1="275.80" y1="731.40" x2="289.20" y2="731.40" stroke="#665847" stroke-width="3" stroke-linecap="round"/>
<line x1="262.40" y1="731.40" x2="275.80" y2="731.40" stroke="#665847" stroke-width="3" stroke-linecap="round"/>
<line x1="249.00" y1="731.40" x2="262.40" y2="731.40" stroke="#665847" stroke-width="3" stroke-linecap="round"/>
<line x1="235.60" y1="731.40" x2="249.00" y2="731.40" stroke="#665847" stroke-width="3" stroke-linecap="round"/>
<line x1="222.20" y1="731.40" x2="235.60" y2="731.40" stroke="#665847" stroke-width="3" stroke-linecap="round"/>
<line x1="208.80" y1="731.40" x2="222.20" y2="731.40" stroke="#665847" stroke-width="3" stroke-linecap="round"/>
<line x1="195.40" y1="731.40" x2="208.80" y2="731.40" stroke="#665847" stroke-width="3" stroke-linecap="round"/>
<line x1="182.00" y1="731.40" x2="195.40" y2="731.40" stroke="#665847" stroke-width="3" stroke-linecap="round"/>
<line x1="168.60" y1="731.40" x2="182.00" y2="731.40" stroke="#665847" stroke-width="3" stroke-linecap="round"/>
<line x1="155.20" y1="731.40" x2="168.60" y2="731.40" stroke="#665847" stroke-width="3" stroke-linecap="round"/>
<line x1="141.80" y1="731.40" x2="155.20" y2="731.40" stroke="#665847" stroke-width="3" stroke-linecap="round"/>
<line x1="128.40" y1="731.40" x2="141.80" y2="731.40" stroke="#665847" stroke-width="3" stroke-linecap="round"/>
<line x1="115.00" y1="731.40" x2="128.40" y2="731.40" stroke="#665847" stroke-width="3" stroke-linecap="round"/>
<line x1="101.60" y1="731.40" x2="115.00" y2="731.40" stroke="#665847" stroke-width="3" stroke-linecap="round"/>
<line x1="88.20" y1="731.40" x2="101.60" y2="731.40" stroke="#665847" stroke-width="3" stroke-linecap="round"/>
<line x1="74.80" y1="731.40" x2="88.20" y2="731.40" stroke="#665847" stroke-width="3" stroke-linecap="round"/>
<line x1="61.40" y1="731.40" x2="74.80" y2="731.40" stroke="#665847" stroke-width="3" stroke-linecap="round"/>
<line x1="48.00" y1="731.40" x2="61.40" y2="731.40" stroke="#665847" stroke-width="3" stroke-linecap="round"/>
<line x1="811.80" y1="302.60" x2="811.80" y2="289.20" stroke="#665847" stroke-width="3" stroke-linecap="round"/>
<line x1="811.80" y1="289.20" x2="811.80" y2="275.80" stroke="#665847" stroke-width="3" stroke-linecap="round"/>
<line x1="811.80" y1="275.80" x2="825.20" y2="275.80" stroke="#665847" stroke-width="3" stroke-linecap="round"/>
<line x1="825.20" y1="275.80" x2="838.60" y2="275.80" stroke="#665847" stroke-width="3" stroke-linecap="round"/>
<line x1="838.60" y1="275.80" x2="852.00" y2="275.80" stroke="#665847" stroke-width="3" stroke-linecap="round"/>
<line x1="168.60" y1="744.80" x2="168.60" y2="731.40" stroke="#665847" stroke-width="3" stroke-linecap="round"/>
<line x1="168.60" y1="758.20" x2="168.60" y2="744.80" stroke="#665847" stroke-width="3" stroke-linecap="round"/>
<line x1="168.60" y1="771.60" x2="168.60" y2="758.20" stroke="#665847" stroke-width="3" stroke-linecap="round"/>
<line x1="168.60" y1="785.00" x2="168.60" y2="771.60" stroke="#665847" stroke-width="3" stroke-linecap="round"/>
<line x1="168.60" y1="798.40" x2="168.60" y2="785.00" stroke="#665847" stroke-width="3" stroke-linecap="round"/>
<line x1="168.60" y1="811.80" x2="168.60" y2="798.40" stroke="#665847" stroke-width="3" stroke-linecap="round"/>
<line x1="168.60" y1="825.20" x2="168.60" y2="811.80" stroke="#665847" stroke-width="3" stroke-linecap="round"/>
<line x1="168.60" y1="838.60" x2="168.60" y2="825.20" stroke="#665847" stroke-width="3" stroke-linecap="round"/>
<line x1="168.60" y1="852.00" x2="168.60" y2="838.60" stroke="#665847" stroke-width="3" stroke-linecap="round"/>
<line x1="275.80" y1="115.00" x2="275.80" y2="101.60" stroke="#665847" stroke-width="3" stroke-linecap="round"/>
<line x1="275.80" y1="101.60" x2="275.80" y2="88.20" stroke="#665847" stroke-width="3" stroke-linecap="round"/>
<line x1="275.80" y1="88.20" x2="275.80" y2="74.80" stroke="#665847" stroke-width="3" stroke-linecap="round"/>
<line x1="275.80" y1="74.80" x2="275.80" y2="61.40" stroke="#665847" stroke-width="3" stroke-linecap="round"/>
<line x1="275.80" y1="61.40" x2="275.80" y2="48.00" stroke="#665847" stroke-width="3" stroke-linecap="round"/>
<line x1="396.40" y1="101.60" x2="396.40" y2="88.20" stroke="#665847" stroke-width="3" stroke-linecap="round"/>
<line x1="396.40" y1="88.20" x2="396.40" y2="74.80" stroke="#665847" stroke-width="3" stroke-linecap="round"/>
<line x1="396.40" y1="74.80" x2="396.40" y2="61.40" stroke="#665847" stroke-width="3" stroke-linecap="round"/>
<line x1="396.40" y1="61.40" x2="396.40" y2="48.00" stroke="#665847" stroke-width="3" stroke-linecap="round"/>
<line x1="450.00" y1="101.60" x2="463.40" y2="101.60" stroke="#665847" stroke-width="3" stroke-linecap="round"/>
<line x1="463.40" y1="101.60" x2="476.80" y2="101.60" stroke="#665847" stroke-width="3" stroke-linecap="round"/>
<line x1="476.80" y1="101.60" x2="490.20" y2="101.60" stroke="#665847" stroke-width="3" stroke-linecap="round"/>
<line x1="490.20" y1="101.60" x2="503.60" y2="101.60" stroke="#665847" stroke-width="3" stroke-linecap="round"/>
<line x1="503.60" y1="101.60" x2="503.60" y2="88.20" stroke="#665847" stroke-width="3" stroke-linecap="round"/>
<line x1="503.60" y1="88.20" x2="503.60" y2="74.80" stroke="#665847" stroke-width="3" stroke-linecap="round"/>
<line x1="503.60" y1="74.80" x2="503.60" y2="61.40" stroke="#665847" stroke-width="3" stroke-linecap="round"/>
<line x1="503.60" y1="61.40" x2="503.60" y2="48.00" stroke="#665847" stroke-width="3" stroke-linecap="round"/>
</svg>
